<?xml version="1.0" standalone="no"?>
<!DOCTYPE svg PUBLIC "-//W3C//DTD SVG 20010904//EN"
 "http://www.w3.org/TR/2001/REC-SVG-20010904/DTD/svg10.dtd">
<svg version="1.0" xmlns="http://www.w3.org/2000/svg"
 width="555.000000pt" height="555.000000pt" viewBox="0 0 555.000000 555.000000"
 preserveAspectRatio="xMidYMid meet">
<metadata>
Created by potrace 1.12, written by Peter Selinger 2001-2015
</metadata>
<g transform="translate(0.000000,555.000000) scale(0.100000,-0.100000)"
fill="#000000" stroke="none">
<path d="M0 2775 l0 -2775 2775 0 2775 0 0 2775 0 2775 -2775 0 -2775 0 0
-2775z m4773 1256 c70 -46 125 -86 122 -89 -3 -4 -459 -252 -1013 -553 -650
-353 -1008 -542 -1010 -534 -3 14 165 2207 174 2262 l5 31 797 -517 c438 -284
855 -555 925 -600z m-1961 -1197 c766 -460 1398 -841 1405 -848 10 -9 3 -27
-30 -83 -24 -40 -46 -75 -49 -78 -5 -6 -2781 1655 -2805 1678 -10 9 -2 29 33
90 26 42 48 77 50 77 2 0 630 -376 1396 -836z m-82 -231 c0 -27 -29 -529 -65
-1116 -36 -588 -65 -1084 -65 -1103 0 -19 -4 -34 -10 -34 -15 0 -1871 1162
-1866 1168 8 8 1991 1130 1999 1131 4 1 7 -20 7 -46z"/>
</g>
</svg>
